<svg viewBox="-8 -8 856 124" xmlns="http://www.w3.org/2000/svg" role="img" aria-label="Animated winged contribution snake"><desc>Small winged snake moving through a GitHub-style contribution grid and eating highlighted cells.</desc><style>.g{fill:#1E2A33;stroke:#8FB3CC26;stroke-width:1px}.food{stroke:#8FB3CC26;stroke-width:1px}</style><rect class="g" x="0" y="0" width="12" height="12" rx="2"/><rect class="g" x="16" y="0" width="12" height="12" rx="2"/><rect class="g" x="32" y="0" width="12" height="12" rx="2"/><rect class="g" x="48" y="0" width="12" height="12" rx="2"/><rect class="g" x="64" y="0" width="12" height="12" rx="2"/><rect class="g" x="80" y="0" width="12" height="12" rx="2"/><rect class="g" x="96" y="0" width="12" height="12" rx="2"/><rect class="g" x="112" y="0" width="12" height="12" rx="2"/><rect class="g" x="128" y="0" width="12" height="12" rx="2"/><rect class="g" x="144" y="0" width="12" height="12" rx="2"/><rect class="g" x="160" y="0" width="12" height="12" rx="2"/><rect class="g" x="176" y="0" width="12" height="12" rx="2"/><rect class="g" x="192" y="0" width="12" height="12" rx="2"/><rect class="g" x="208" y="0" width="12" height="12" rx="2"/><rect class="g" x="224" y="0" width="12" height="12" rx="2"/><rect class="g" x="240" y="0" width="12" height="12" rx="2"/><rect class="g" x="256" y="0" width="12" height="12" rx="2"/><rect class="g" x="272" y="0" width="12" height="12" rx="2"/><rect class="g" x="288" y="0" width="12" height="12" rx="2"/><rect class="g" x="304" y="0" width="12" height="12" rx="2"/><rect class="g" x="320" y="0" width="12" height="12" rx="2"/><rect class="g" x="336" y="0" width="12" height="12" rx="2"/><rect class="g" x="352" y="0" width="12" height="12" rx="2"/><rect class="g" x="368" y="0" width="12" height="12" rx="2"/><rect class="g" x="384" y="0" width="12" height="12" rx="2"/><rect class="g" x="400" y="0" width="12" height="12" rx="2"/><rect class="g" x="416" y="0" width="12" height="12" rx="2"/><rect class="g" x="432" y="0" width="12" height="12" rx="2"/><rect class="g" x="448" y="0" width="12" height="12" rx="2"/><rect class="g" x="464" y="0" width="12" height="12" rx="2"/><rect class="g" x="480" y="0" width="12" height="12" rx="2"/><rect class="g" x="496" y="0" width="12" height="12" rx="2"/><rect class="g" x="512" y="0" width="12" height="12" rx="2"/><rect class="g" x="528" y="0" width="12" height="12" rx="2"/><rect class="g" x="544" y="0" width="12" height="12" rx="2"/><rect class="g" x="560" y="0" width="12" height="12" rx="2"/><rect class="g" x="576" y="0" width="12" height="12" rx="2"/><rect class="g" x="592" y="0" width="12" height="12" rx="2"/><rect class="g" x="608" y="0" width="12" height="12" rx="2"/><rect class="g" x="624" y="0" width="12" height="12" rx="2"/><rect class="g" x="640" y="0" width="12" height="12" rx="2"/><rect class="g" x="656" y="0" width="12" height="12" rx="2"/><rect class="g" x="672" y="0" width="12" height="12" rx="2"/><rect class="g" x="688" y="0" width="12" height="12" rx="2"/><rect class="g" x="704" y="0" width="12" height="12" rx="2"/><rect class="g" x="720" y="0" width="12" height="12" rx="2"/><rect class="g" x="736" y="0" width="12" height="12" rx="2"/><rect class="g" x="752" y="0" width="12" height="12" rx="2"/><rect class="g" x="768" y="0" width="12" height="12" rx="2"/><rect class="g" x="784" y="0" width="12" height="12" rx="2"/><rect class="g" x="800" y="0" width="12" height="12" rx="2"/><rect class="g" x="816" y="0" width="12" height="12" rx="2"/><rect class="g" x="832" y="0" width="12" height="12" rx="2"/><rect class="g" x="0" y="16" width="12" height="12" rx="2"/><rect class="g" x="16" y="16" width="12" height="12" rx="2"/><rect class="g" x="32" y="16" width="12" height="12" rx="2"/><rect class="g" x="48" y="16" width="12" height="12" rx="2"/><rect class="g" x="64" y="16" width="12" height="12" rx="2"/><rect class="g" x="80" y="16" width="12" height="12" rx="2"/><rect class="g" x="96" y="16" width="12" height="12" rx="2"/><rect class="g" x="112" y="16" width="12" height="12" rx="2"/><rect class="g" x="128" y="16" width="12" height="12" rx="2"/><rect class="g" x="144" y="16" width="12" height="12" rx="2"/><rect class="g" x="160" y="16" width="12" height="12" rx="2"/><rect class="g" x="176" y="16" width="12" height="12" rx="2"/><rect class="g" x="192" y="16" width="12" height="12" rx="2"/><rect class="g" x="208" y="16" width="12" height="12" rx="2"/><rect class="g" x="224" y="16" width="12" height="12" rx="2"/><rect class="g" x="240" y="16" width="12" height="12" rx="2"/><rect class="g" x="256" y="16" width="12" height="12" rx="2"/><rect class="g" x="272" y="16" width="12" height="12" rx="2"/><rect class="g" x="288" y="16" width="12" height="12" rx="2"/><rect class="g" x="304" y="16" width="12" height="12" rx="2"/><rect class="g" x="320" y="16" width="12" height="12" rx="2"/><rect class="g" x="336" y="16" width="12" height="12" rx="2"/><rect class="g" x="352" y="16" width="12" height="12" rx="2"/><rect class="g" x="368" y="16" width="12" height="12" rx="2"/><rect class="g" x="384" y="16" width="12" height="12" rx="2"/><rect class="g" x="400" y="16" width="12" height="12" rx="2"/><rect class="g" x="416" y="16" width="12" height="12" rx="2"/><rect class="g" x="432" y="16" width="12" height="12" rx="2"/><rect class="g" x="448" y="16" width="12" height="12" rx="2"/><rect class="g" x="464" y="16" width="12" height="12" rx="2"/><rect class="g" x="480" y="16" width="12" height="12" rx="2"/><rect class="g" x="496" y="16" width="12" height="12" rx="2"/><rect class="g" x="512" y="16" width="12" height="12" rx="2"/><rect class="g" x="528" y="16" width="12" height="12" rx="2"/><rect class="g" x="544" y="16" width="12" height="12" rx="2"/><rect class="g" x="560" y="16" width="12" height="12" rx="2"/><rect class="g" x="576" y="16" width="12" height="12" rx="2"/><rect class="g" x="592" y="16" width="12" height="12" rx="2"/><rect class="g" x="608" y="16" width="12" height="12" rx="2"/><rect class="g" x="624" y="16" width="12" height="12" rx="2"/><rect class="g" x="640" y="16" width="12" height="12" rx="2"/><rect class="g" x="656" y="16" width="12" height="12" rx="2"/><rect class="g" x="672" y="16" width="12" height="12" rx="2"/><rect class="g" x="688" y="16" width="12" height="12" rx="2"/><rect class="g" x="704" y="16" width="12" height="12" rx="2"/><rect class="g" x="720" y="16" width="12" height="12" rx="2"/><rect class="g" x="736" y="16" width="12" height="12" rx="2"/><rect class="g" x="752" y="16" width="12" height="12" rx="2"/><rect class="g" x="768" y="16" width="12" height="12" rx="2"/><rect class="g" x="784" y="16" width="12" height="12" rx="2"/><rect class="g" x="800" y="16" width="12" height="12" rx="2"/><rect class="g" x="816" y="16" width="12" height="12" rx="2"/><rect class="g" x="832" y="16" width="12" height="12" rx="2"/><rect class="g" x="0" y="32" width="12" height="12" rx="2"/><rect class="g" x="16" y="32" width="12" height="12" rx="2"/><rect class="g" x="32" y="32" width="12" height="12" rx="2"/><rect class="g" x="48" y="32" width="12" height="12" rx="2"/><rect class="g" x="64" y="32" width="12" height="12" rx="2"/><rect class="g" x="80" y="32" width="12" height="12" rx="2"/><rect class="g" x="96" y="32" width="12" height="12" rx="2"/><rect class="g" x="112" y="32" width="12" height="12" rx="2"/><rect class="g" x="128" y="32" width="12" height="12" rx="2"/><rect class="g" x="144" y="32" width="12" height="12" rx="2"/><rect class="g" x="160" y="32" width="12" height="12" rx="2"/><rect class="g" x="176" y="32" width="12" height="12" rx="2"/><rect class="g" x="192" y="32" width="12" height="12" rx="2"/><rect class="g" x="208" y="32" width="12" height="12" rx="2"/><rect class="g" x="224" y="32" width="12" height="12" rx="2"/><rect class="g" x="240" y="32" width="12" height="12" rx="2"/><rect class="g" x="256" y="32" width="12" height="12" rx="2"/><rect class="g" x="272" y="32" width="12" height="12" rx="2"/><rect class="g" x="288" y="32" width="12" height="12" rx="2"/><rect class="g" x="304" y="32" width="12" height="12" rx="2"/><rect class="g" x="320" y="32" width="12" height="12" rx="2"/><rect class="g" x="336" y="32" width="12" height="12" rx="2"/><rect class="g" x="352" y="32" width="12" height="12" rx="2"/><rect class="g" x="368" y="32" width="12" height="12" rx="2"/><rect class="g" x="384" y="32" width="12" height="12" rx="2"/><rect class="g" x="400" y="32" width="12" height="12" rx="2"/><rect class="g" x="416" y="32" width="12" height="12" rx="2"/><rect class="g" x="432" y="32" width="12" height="12" rx="2"/><rect class="g" x="448" y="32" width="12" height="12" rx="2"/><rect class="g" x="464" y="32" width="12" height="12" rx="2"/><rect class="g" x="480" y="32" width="12" height="12" rx="2"/><rect class="g" x="496" y="32" width="12" height="12" rx="2"/><rect class="g" x="512" y="32" width="12" height="12" rx="2"/><rect class="g" x="528" y="32" width="12" height="12" rx="2"/><rect class="g" x="544" y="32" width="12" height="12" rx="2"/><rect class="g" x="560" y="32" width="12" height="12" rx="2"/><rect class="g" x="576" y="32" width="12" height="12" rx="2"/><rect class="g" x="592" y="32" width="12" height="12" rx="2"/><rect class="g" x="608" y="32" width="12" height="12" rx="2"/><rect class="g" x="624" y="32" width="12" height="12" rx="2"/><rect class="g" x="640" y="32" width="12" height="12" rx="2"/><rect class="g" x="656" y="32" width="12" height="12" rx="2"/><rect class="g" x="672" y="32" width="12" height="12" rx="2"/><rect class="g" x="688" y="32" width="12" height="12" rx="2"/><rect class="g" x="704" y="32" width="12" height="12" rx="2"/><rect class="g" x="720" y="32" width="12" height="12" rx="2"/><rect class="g" x="736" y="32" width="12" height="12" rx="2"/><rect class="g" x="752" y="32" width="12" height="12" rx="2"/><rect class="g" x="768" y="32" width="12" height="12" rx="2"/><rect class="g" x="784" y="32" width="12" height="12" rx="2"/><rect class="g" x="800" y="32" width="12" height="12" rx="2"/><rect class="g" x="816" y="32" width="12" height="12" rx="2"/><rect class="g" x="832" y="32" width="12" height="12" rx="2"/><rect class="g" x="0" y="48" width="12" height="12" rx="2"/><rect class="g" x="16" y="48" width="12" height="12" rx="2"/><rect class="g" x="32" y="48" width="12" height="12" rx="2"/><rect class="g" x="48" y="48" width="12" height="12" rx="2"/><rect class="g" x="64" y="48" width="12" height="12" rx="2"/><rect class="g" x="80" y="48" width="12" height="12" rx="2"/><rect class="g" x="96" y="48" width="12" height="12" rx="2"/><rect class="g" x="112" y="48" width="12" height="12" rx="2"/><rect class="g" x="128" y="48" width="12" height="12" rx="2"/><rect class="g" x="144" y="48" width="12" height="12" rx="2"/><rect class="g" x="160" y="48" width="12" height="12" rx="2"/><rect class="g" x="176" y="48" width="12" height="12" rx="2"/><rect class="g" x="192" y="48" width="12" height="12" rx="2"/><rect class="g" x="208" y="48" width="12" height="12" rx="2"/><rect class="g" x="224" y="48" width="12" height="12" rx="2"/><rect class="g" x="240" y="48" width="12" height="12" rx="2"/><rect class="g" x="256" y="48" width="12" height="12" rx="2"/><rect class="g" x="272" y="48" width="12" height="12" rx="2"/><rect class="g" x="288" y="48" width="12" height="12" rx="2"/><rect class="g" x="304" y="48" width="12" height="12" rx="2"/><rect class="g" x="320" y="48" width="12" height="12" rx="2"/><rect class="g" x="336" y="48" width="12" height="12" rx="2"/><rect class="g" x="352" y="48" width="12" height="12" rx="2"/><rect class="g" x="368" y="48" width="12" height="12" rx="2"/><rect class="g" x="384" y="48" width="12" height="12" rx="2"/><rect class="g" x="400" y="48" width="12" height="12" rx="2"/><rect class="g" x="416" y="48" width="12" height="12" rx="2"/><rect class="g" x="432" y="48" width="12" height="12" rx="2"/><rect class="g" x="448" y="48" width="12" height="12" rx="2"/><rect class="g" x="464" y="48" width="12" height="12" rx="2"/><rect class="g" x="480" y="48" width="12" height="12" rx="2"/><rect class="g" x="496" y="48" width="12" height="12" rx="2"/><rect class="g" x="512" y="48" width="12" height="12" rx="2"/><rect class="g" x="528" y="48" width="12" height="12" rx="2"/><rect class="g" x="544" y="48" width="12" height="12" rx="2"/><rect class="g" x="560" y="48" width="12" height="12" rx="2"/><rect class="g" x="576" y="48" width="12" height="12" rx="2"/><rect class="g" x="592" y="48" width="12" height="12" rx="2"/><rect class="g" x="608" y="48" width="12" height="12" rx="2"/><rect class="g" x="624" y="48" width="12" height="12" rx="2"/><rect class="g" x="640" y="48" width="12" height="12" rx="2"/><rect class="g" x="656" y="48" width="12" height="12" rx="2"/><rect class="g" x="672" y="48" width="12" height="12" rx="2"/><rect class="g" x="688" y="48" width="12" height="12" rx="2"/><rect class="g" x="704" y="48" width="12" height="12" rx="2"/><rect class="g" x="720" y="48" width="12" height="12" rx="2"/><rect class="g" x="736" y="48" width="12" height="12" rx="2"/><rect class="g" x="752" y="48" width="12" height="12" rx="2"/><rect class="g" x="768" y="48" width="12" height="12" rx="2"/><rect class="g" x="784" y="48" width="12" height="12" rx="2"/><rect class="g" x="800" y="48" width="12" height="12" rx="2"/><rect class="g" x="816" y="48" width="12" height="12" rx="2"/><rect class="g" x="832" y="48" width="12" height="12" rx="2"/><rect class="g" x="0" y="64" width="12" height="12" rx="2"/><rect class="g" x="16" y="64" width="12" height="12" rx="2"/><rect class="g" x="32" y="64" width="12" height="12" rx="2"/><rect class="g" x="48" y="64" width="12" height="12" rx="2"/><rect class="g" x="64" y="64" width="12" height="12" rx="2"/><rect class="g" x="80" y="64" width="12" height="12" rx="2"/><rect class="g" x="96" y="64" width="12" height="12" rx="2"/><rect class="g" x="112" y="64" width="12" height="12" rx="2"/><rect class="g" x="128" y="64" width="12" height="12" rx="2"/><rect class="g" x="144" y="64" width="12" height="12" rx="2"/><rect class="g" x="160" y="64" width="12" height="12" rx="2"/><rect class="g" x="176" y="64" width="12" height="12" rx="2"/><rect class="g" x="192" y="64" width="12" height="12" rx="2"/><rect class="g" x="208" y="64" width="12" height="12" rx="2"/><rect class="g" x="224" y="64" width="12" height="12" rx="2"/><rect class="g" x="240" y="64" width="12" height="12" rx="2"/><rect class="g" x="256" y="64" width="12" height="12" rx="2"/><rect class="g" x="272" y="64" width="12" height="12" rx="2"/><rect class="g" x="288" y="64" width="12" height="12" rx="2"/><rect class="g" x="304" y="64" width="12" height="12" rx="2"/><rect class="g" x="320" y="64" width="12" height="12" rx="2"/><rect class="g" x="336" y="64" width="12" height="12" rx="2"/><rect class="g" x="352" y="64" width="12" height="12" rx="2"/><rect class="g" x="368" y="64" width="12" height="12" rx="2"/><rect class="g" x="384" y="64" width="12" height="12" rx="2"/><rect class="g" x="400" y="64" width="12" height="12" rx="2"/><rect class="g" x="416" y="64" width="12" height="12" rx="2"/><rect class="g" x="432" y="64" width="12" height="12" rx="2"/><rect class="g" x="448" y="64" width="12" height="12" rx="2"/><rect class="g" x="464" y="64" width="12" height="12" rx="2"/><rect class="g" x="480" y="64" width="12" height="12" rx="2"/><rect class="g" x="496" y="64" width="12" height="12" rx="2"/><rect class="g" x="512" y="64" width="12" height="12" rx="2"/><rect class="g" x="528" y="64" width="12" height="12" rx="2"/><rect class="g" x="544" y="64" width="12" height="12" rx="2"/><rect class="g" x="560" y="64" width="12" height="12" rx="2"/><rect class="g" x="576" y="64" width="12" height="12" rx="2"/><rect class="g" x="592" y="64" width="12" height="12" rx="2"/><rect class="g" x="608" y="64" width="12" height="12" rx="2"/><rect class="g" x="624" y="64" width="12" height="12" rx="2"/><rect class="g" x="640" y="64" width="12" height="12" rx="2"/><rect class="g" x="656" y="64" width="12" height="12" rx="2"/><rect class="g" x="672" y="64" width="12" height="12" rx="2"/><rect class="g" x="688" y="64" width="12" height="12" rx="2"/><rect class="g" x="704" y="64" width="12" height="12" rx="2"/><rect class="g" x="720" y="64" width="12" height="12" rx="2"/><rect class="g" x="736" y="64" width="12" height="12" rx="2"/><rect class="g" x="752" y="64" width="12" height="12" rx="2"/><rect class="g" x="768" y="64" width="12" height="12" rx="2"/><rect class="g" x="784" y="64" width="12" height="12" rx="2"/><rect class="g" x="800" y="64" width="12" height="12" rx="2"/><rect class="g" x="816" y="64" width="12" height="12" rx="2"/><rect class="g" x="832" y="64" width="12" height="12" rx="2"/><rect class="g" x="0" y="80" width="12" height="12" rx="2"/><rect class="g" x="16" y="80" width="12" height="12" rx="2"/><rect class="g" x="32" y="80" width="12" height="12" rx="2"/><rect class="g" x="48" y="80" width="12" height="12" rx="2"/><rect class="g" x="64" y="80" width="12" height="12" rx="2"/><rect class="g" x="80" y="80" width="12" height="12" rx="2"/><rect class="g" x="96" y="80" width="12" height="12" rx="2"/><rect class="g" x="112" y="80" width="12" height="12" rx="2"/><rect class="g" x="128" y="80" width="12" height="12" rx="2"/><rect class="g" x="144" y="80" width="12" height="12" rx="2"/><rect class="g" x="160" y="80" width="12" height="12" rx="2"/><rect class="g" x="176" y="80" width="12" height="12" rx="2"/><rect class="g" x="192" y="80" width="12" height="12" rx="2"/><rect class="g" x="208" y="80" width="12" height="12" rx="2"/><rect class="g" x="224" y="80" width="12" height="12" rx="2"/><rect class="g" x="240" y="80" width="12" height="12" rx="2"/><rect class="g" x="256" y="80" width="12" height="12" rx="2"/><rect class="g" x="272" y="80" width="12" height="12" rx="2"/><rect class="g" x="288" y="80" width="12" height="12" rx="2"/><rect class="g" x="304" y="80" width="12" height="12" rx="2"/><rect class="g" x="320" y="80" width="12" height="12" rx="2"/><rect class="g" x="336" y="80" width="12" height="12" rx="2"/><rect class="g" x="352" y="80" width="12" height="12" rx="2"/><rect class="g" x="368" y="80" width="12" height="12" rx="2"/><rect class="g" x="384" y="80" width="12" height="12" rx="2"/><rect class="g" x="400" y="80" width="12" height="12" rx="2"/><rect class="g" x="416" y="80" width="12" height="12" rx="2"/><rect class="g" x="432" y="80" width="12" height="12" rx="2"/><rect class="g" x="448" y="80" width="12" height="12" rx="2"/><rect class="g" x="464" y="80" width="12" height="12" rx="2"/><rect class="g" x="480" y="80" width="12" height="12" rx="2"/><rect class="g" x="496" y="80" width="12" height="12" rx="2"/><rect class="g" x="512" y="80" width="12" height="12" rx="2"/><rect class="g" x="528" y="80" width="12" height="12" rx="2"/><rect class="g" x="544" y="80" width="12" height="12" rx="2"/><rect class="g" x="560" y="80" width="12" height="12" rx="2"/><rect class="g" x="576" y="80" width="12" height="12" rx="2"/><rect class="g" x="592" y="80" width="12" height="12" rx="2"/><rect class="g" x="608" y="80" width="12" height="12" rx="2"/><rect class="g" x="624" y="80" width="12" height="12" rx="2"/><rect class="g" x="640" y="80" width="12" height="12" rx="2"/><rect class="g" x="656" y="80" width="12" height="12" rx="2"/><rect class="g" x="672" y="80" width="12" height="12" rx="2"/><rect class="g" x="688" y="80" width="12" height="12" rx="2"/><rect class="g" x="704" y="80" width="12" height="12" rx="2"/><rect class="g" x="720" y="80" width="12" height="12" rx="2"/><rect class="g" x="736" y="80" width="12" height="12" rx="2"/><rect class="g" x="752" y="80" width="12" height="12" rx="2"/><rect class="g" x="768" y="80" width="12" height="12" rx="2"/><rect class="g" x="784" y="80" width="12" height="12" rx="2"/><rect class="g" x="800" y="80" width="12" height="12" rx="2"/><rect class="g" x="816" y="80" width="12" height="12" rx="2"/><rect class="g" x="832" y="80" width="12" height="12" rx="2"/><rect class="g" x="0" y="96" width="12" height="12" rx="2"/><rect class="g" x="16" y="96" width="12" height="12" rx="2"/><rect class="g" x="32" y="96" width="12" height="12" rx="2"/><rect class="g" x="48" y="96" width="12" height="12" rx="2"/><rect class="g" x="64" y="96" width="12" height="12" rx="2"/><rect class="g" x="80" y="96" width="12" height="12" rx="2"/><rect class="g" x="96" y="96" width="12" height="12" rx="2"/><rect class="g" x="112" y="96" width="12" height="12" rx="2"/><rect class="g" x="128" y="96" width="12" height="12" rx="2"/><rect class="g" x="144" y="96" width="12" height="12" rx="2"/><rect class="g" x="160" y="96" width="12" height="12" rx="2"/><rect class="g" x="176" y="96" width="12" height="12" rx="2"/><rect class="g" x="192" y="96" width="12" height="12" rx="2"/><rect class="g" x="208" y="96" width="12" height="12" rx="2"/><rect class="g" x="224" y="96" width="12" height="12" rx="2"/><rect class="g" x="240" y="96" width="12" height="12" rx="2"/><rect class="g" x="256" y="96" width="12" height="12" rx="2"/><rect class="g" x="272" y="96" width="12" height="12" rx="2"/><rect class="g" x="288" y="96" width="12" height="12" rx="2"/><rect class="g" x="304" y="96" width="12" height="12" rx="2"/><rect class="g" x="320" y="96" width="12" height="12" rx="2"/><rect class="g" x="336" y="96" width="12" height="12" rx="2"/><rect class="g" x="352" y="96" width="12" height="12" rx="2"/><rect class="g" x="368" y="96" width="12" height="12" rx="2"/><rect class="g" x="384" y="96" width="12" height="12" rx="2"/><rect class="g" x="400" y="96" width="12" height="12" rx="2"/><rect class="g" x="416" y="96" width="12" height="12" rx="2"/><rect class="g" x="432" y="96" width="12" height="12" rx="2"/><rect class="g" x="448" y="96" width="12" height="12" rx="2"/><rect class="g" x="464" y="96" width="12" height="12" rx="2"/><rect class="g" x="480" y="96" width="12" height="12" rx="2"/><rect class="g" x="496" y="96" width="12" height="12" rx="2"/><rect class="g" x="512" y="96" width="12" height="12" rx="2"/><rect class="g" x="528" y="96" width="12" height="12" rx="2"/><rect class="g" x="544" y="96" width="12" height="12" rx="2"/><rect class="g" x="560" y="96" width="12" height="12" rx="2"/><rect class="g" x="576" y="96" width="12" height="12" rx="2"/><rect class="g" x="592" y="96" width="12" height="12" rx="2"/><rect class="g" x="608" y="96" width="12" height="12" rx="2"/><rect class="g" x="624" y="96" width="12" height="12" rx="2"/><rect class="g" x="640" y="96" width="12" height="12" rx="2"/><rect class="g" x="656" y="96" width="12" height="12" rx="2"/><rect class="g" x="672" y="96" width="12" height="12" rx="2"/><rect class="g" x="688" y="96" width="12" height="12" rx="2"/><rect class="g" x="704" y="96" width="12" height="12" rx="2"/><rect class="g" x="720" y="96" width="12" height="12" rx="2"/><rect class="g" x="736" y="96" width="12" height="12" rx="2"/><rect class="g" x="752" y="96" width="12" height="12" rx="2"/><rect class="g" x="768" y="96" width="12" height="12" rx="2"/><rect class="g" x="784" y="96" width="12" height="12" rx="2"/><rect class="g" x="800" y="96" width="12" height="12" rx="2"/><rect class="g" x="816" y="96" width="12" height="12" rx="2"/><rect class="g" x="832" y="96" width="12" height="12" rx="2"/><rect class="food" x="96" y="48" width="12" height="12" rx="2" fill="#314657"><animate attributeName="opacity" dur="16s" repeatCount="indefinite" calcMode="discrete" values="1;1;0;0;1" keyTimes="0;0.07711;0.09911;0.995;1"/></rect><rect class="food" x="176" y="16" width="12" height="12" rx="2" fill="#4D6C83"><animate attributeName="opacity" dur="16s" repeatCount="indefinite" calcMode="discrete" values="1;1;0;0;1" keyTimes="0;0.18349;0.20549;0.995;1"/></rect><rect class="food" x="256" y="48" width="12" height="12" rx="2" fill="#6D91A9"><animate attributeName="opacity" dur="16s" repeatCount="indefinite" calcMode="discrete" values="1;1;0;0;1" keyTimes="0;0.28987;0.31187;0.995;1"/></rect><rect class="food" x="336" y="80" width="12" height="12" rx="2" fill="#8FB3CC"><animate attributeName="opacity" dur="16s" repeatCount="indefinite" calcMode="discrete" values="1;1;0;0;1" keyTimes="0;0.39626;0.41826;0.995;1"/></rect><rect class="food" x="416" y="48" width="12" height="12" rx="2" fill="#314657"><animate attributeName="opacity" dur="16s" repeatCount="indefinite" calcMode="discrete" values="1;1;0;0;1" keyTimes="0;0.50264;0.52464;0.995;1"/></rect><rect class="food" x="496" y="16" width="12" height="12" rx="2" fill="#4D6C83"><animate attributeName="opacity" dur="16s" repeatCount="indefinite" calcMode="discrete" values="1;1;0;0;1" keyTimes="0;0.60902;0.63102;0.995;1"/></rect><rect class="food" x="576" y="64" width="12" height="12" rx="2" fill="#6D91A9"><animate attributeName="opacity" dur="16s" repeatCount="indefinite" calcMode="discrete" values="1;1;0;0;1" keyTimes="0;0.71540;0.73740;0.995;1"/></rect><rect class="food" x="656" y="64" width="12" height="12" rx="2" fill="#8FB3CC"><animate attributeName="opacity" dur="16s" repeatCount="indefinite" calcMode="discrete" values="1;1;0;0;1" keyTimes="0;0.82179;0.84379;0.995;1"/></rect><rect class="food" x="736" y="32" width="12" height="12" rx="2" fill="#314657"><animate attributeName="opacity" dur="16s" repeatCount="indefinite" calcMode="discrete" values="1;1;0;0;1" keyTimes="0;0.92817;0.95017;0.995;1"/></rect><rect x="48" y="0" width="12" height="12" rx="2" fill="#314657"/><rect x="128" y="96" width="12" height="12" rx="2" fill="#4D6C83"/><rect x="208" y="80" width="12" height="12" rx="2" fill="#314657"/><rect x="400" y="0" width="12" height="12" rx="2" fill="#314657"/><rect x="512" y="80" width="12" height="12" rx="2" fill="#4D6C83"/><rect x="640" y="0" width="12" height="12" rx="2" fill="#314657"/><rect x="800" y="96" width="12" height="12" rx="2" fill="#4D6C83"/><g><animateTransform attributeName="transform" attributeType="XML" type="translate" dur="16s" repeatCount="indefinite" calcMode="linear" keyTimes="0.00000;0.02128;0.04255;0.06383;0.08511;0.10638;0.12766;0.14894;0.17021;0.19149;0.21277;0.23404;0.25532;0.27660;0.29787;0.31915;0.34043;0.36170;0.38298;0.40426;0.42553;0.44681;0.46809;0.48936;0.51064;0.53191;0.55319;0.57447;0.59574;0.61702;0.63830;0.65957;0.68085;0.70213;0.72340;0.74468;0.76596;0.78723;0.80851;0.82979;0.85106;0.87234;0.89362;0.91489;0.93617;0.95745;0.97872;1.00000" values="0 48;16 48;32 48;48 48;64 48;80 48;96 48;112 32;128 32;144 16;160 16;176 16;192 32;208 32;224 48;240 48;256 64;272 64;288 80;304 80;320 80;336 64;352 64;368 48;384 48;400 32;416 32;432 16;448 16;464 16;480 32;496 32;512 48;528 48;544 64;560 64;576 80;592 80;608 80;624 64;640 64;656 48;672 48;688 32;704 32;720 16;736 16;752 16"/><rect x="0" y="32" width="12" height="12" rx="2" fill="#8FB3CC"/><rect x="16" y="32" width="12" height="12" rx="2" fill="#8FB3CC"/><rect x="32" y="32" width="12" height="12" rx="2" fill="#8FB3CC"/><rect x="48" y="32" width="12" height="12" rx="2" fill="#8FB3CC"/><g><animate attributeName="opacity" dur=".64s" repeatCount="indefinite" calcMode="discrete" values="1;0;1;0;1" keyTimes="0;.25;.5;.75;1"/><rect x="16" y="0" width="12" height="12" rx="2" fill="#6D91A9"/><rect x="32" y="0" width="12" height="12" rx="2" fill="#C6E3F2"/><rect x="16" y="16" width="12" height="12" rx="2" fill="#C6E3F2"/><rect x="32" y="16" width="12" height="12" rx="2" fill="#6D91A9"/><rect x="16" y="48" width="12" height="12" rx="2" fill="#6D91A9"/><rect x="32" y="48" width="12" height="12" rx="2" fill="#6D91A9"/></g><g opacity="0"><animate attributeName="opacity" dur=".64s" repeatCount="indefinite" calcMode="discrete" values="0;1;0;1;0" keyTimes="0;.25;.5;.75;1"/><rect x="16" y="16" width="12" height="12" rx="2" fill="#C6E3F2"/><rect x="32" y="16" width="12" height="12" rx="2" fill="#C6E3F2"/><rect x="16" y="48" width="12" height="12" rx="2" fill="#6D91A9"/><rect x="32" y="48" width="12" height="12" rx="2" fill="#6D91A9"/></g></g></svg>