<?xml version="1.0" encoding="UTF-8"?>
<svg xmlns="http://www.w3.org/2000/svg" xmlns:xlink="http://www.w3.org/1999/xlink" width="1120" height="360" viewBox="0 0 1120 360" fill="none" role="img" aria-label="Tech Toolbox">
<rect x="0" y="0" width="1120" height="360" fill="transparent"/>
<text x="560.0" y="34" text-anchor="middle" font-family="Arial, Helvetica, sans-serif" font-size="32" font-weight="700" fill="#3F342D">Tech Toolbox</text>
<text x="560.0" y="58" text-anchor="middle" font-family="Arial, Helvetica, sans-serif" font-size="15" fill="#7D695D">Core technologies I currently work with</text>
<g transform="translate(24,78)">
<rect x="22" y="0" width="56" height="56" rx="14" fill="#F7F4F1" stroke="#ECE6E0" stroke-width="1"/>
<image href="https://cdn.jsdelivr.net/gh/devicons/devicon/icons/java/java-original.svg" x="28" y="6" width="44" height="44" preserveAspectRatio="xMidYMid meet"/>
<text x="50" y="84" text-anchor="middle" font-family="Arial, Helvetica, sans-serif" font-size="15.5" font-weight="600" fill="#3F342D">Java</text>
</g>
<g transform="translate(158,78)">
<rect x="22" y="0" width="56" height="56" rx="14" fill="#F7F4F1" stroke="#ECE6E0" stroke-width="1"/>
<image href="https://cdn.jsdelivr.net/gh/devicons/devicon/icons/spring/spring-original.svg" x="28" y="6" width="44" height="44" preserveAspectRatio="xMidYMid meet"/>
<text x="50" y="84" text-anchor="middle" font-family="Arial, Helvetica, sans-serif" font-size="15.5" font-weight="600" fill="#3F342D">Spring Boot</text>
</g>
<g transform="translate(292,78)">
<rect x="22" y="0" width="56" height="56" rx="14" fill="#F7F4F1" stroke="#ECE6E0" stroke-width="1"/>
<image href="https://cdn.jsdelivr.net/gh/devicons/devicon/icons/quarkus/quarkus-original.svg" x="28" y="6" width="44" height="44" preserveAspectRatio="xMidYMid meet"/>
<text x="50" y="84" text-anchor="middle" font-family="Arial, Helvetica, sans-serif" font-size="15.5" font-weight="600" fill="#3F342D">Quarkus</text>
</g>
<g transform="translate(426,78)">
<rect x="22" y="0" width="56" height="56" rx="14" fill="#F7F4F1" stroke="#ECE6E0" stroke-width="1"/>
<image href="https://cdn.jsdelivr.net/gh/devicons/devicon/icons/python/python-original.svg" x="28" y="6" width="44" height="44" preserveAspectRatio="xMidYMid meet"/>
<text x="50" y="84" text-anchor="middle" font-family="Arial, Helvetica, sans-serif" font-size="15.5" font-weight="600" fill="#3F342D">Python</text>
</g>
<g transform="translate(560,78)">
<rect x="22" y="0" width="56" height="56" rx="14" fill="#F7F4F1" stroke="#ECE6E0" stroke-width="1"/>
<image href="https://cdn.jsdelivr.net/gh/devicons/devicon/icons/django/django-plain.svg" x="28" y="6" width="44" height="44" preserveAspectRatio="xMidYMid meet"/>
<text x="50" y="84" text-anchor="middle" font-family="Arial, Helvetica, sans-serif" font-size="15.5" font-weight="600" fill="#3F342D">Django</text>
</g>
<g transform="translate(694,78)">
<rect x="22" y="0" width="56" height="56" rx="14" fill="#F7F4F1" stroke="#ECE6E0" stroke-width="1"/>
<image href="https://cdn.jsdelivr.net/gh/devicons/devicon/icons/react/react-original.svg" x="28" y="6" width="44" height="44" preserveAspectRatio="xMidYMid meet"/>
<text x="50" y="84" text-anchor="middle" font-family="Arial, Helvetica, sans-serif" font-size="15.5" font-weight="600" fill="#3F342D">React</text>
</g>
<g transform="translate(828,78)">
<rect x="22" y="0" width="56" height="56" rx="14" fill="#F7F4F1" stroke="#ECE6E0" stroke-width="1"/>
<image href="https://cdn.jsdelivr.net/gh/devicons/devicon/icons/angularjs/angularjs-original.svg" x="28" y="6" width="44" height="44" preserveAspectRatio="xMidYMid meet"/>
<text x="50" y="84" text-anchor="middle" font-family="Arial, Helvetica, sans-serif" font-size="15.5" font-weight="600" fill="#3F342D">Angular</text>
</g>
<g transform="translate(962,78)">
<rect x="22" y="0" width="56" height="56" rx="14" fill="#F7F4F1" stroke="#ECE6E0" stroke-width="1"/>
<image href="https://cdn.jsdelivr.net/gh/devicons/devicon/icons/html5/html5-original.svg" x="28" y="6" width="44" height="44" preserveAspectRatio="xMidYMid meet"/>
<text x="50" y="84" text-anchor="middle" font-family="Arial, Helvetica, sans-serif" font-size="15.5" font-weight="600" fill="#3F342D">HTML</text>
</g>
<g transform="translate(24,202)">
<rect x="22" y="0" width="56" height="56" rx="14" fill="#F7F4F1" stroke="#ECE6E0" stroke-width="1"/>
<image href="https://cdn.jsdelivr.net/gh/devicons/devicon/icons/css3/css3-original.svg" x="28" y="6" width="44" height="44" preserveAspectRatio="xMidYMid meet"/>
<text x="50" y="84" text-anchor="middle" font-family="Arial, Helvetica, sans-serif" font-size="15.5" font-weight="600" fill="#3F342D">CSS</text>
</g>
<g transform="translate(158,202)">
<rect x="22" y="0" width="56" height="56" rx="14" fill="#F7F4F1" stroke="#ECE6E0" stroke-width="1"/>
<image href="https://cdn.jsdelivr.net/gh/devicons/devicon/icons/bootstrap/bootstrap-original.svg" x="28" y="6" width="44" height="44" preserveAspectRatio="xMidYMid meet"/>
<text x="50" y="84" text-anchor="middle" font-family="Arial, Helvetica, sans-serif" font-size="15.5" font-weight="600" fill="#3F342D">Bootstrap</text>
</g>
<g transform="translate(292,202)">
<rect x="22" y="0" width="56" height="56" rx="14" fill="#F7F4F1" stroke="#ECE6E0" stroke-width="1"/>
<image href="https://cdn.jsdelivr.net/gh/devicons/devicon/icons/tailwindcss/tailwindcss-original.svg" x="28" y="6" width="44" height="44" preserveAspectRatio="xMidYMid meet"/>
<text x="50" y="84" text-anchor="middle" font-family="Arial, Helvetica, sans-serif" font-size="15.5" font-weight="600" fill="#3F342D">Tailwind CSS</text>
</g>
<g transform="translate(426,202)">
<rect x="22" y="0" width="56" height="56" rx="14" fill="#F7F4F1" stroke="#ECE6E0" stroke-width="1"/>
<image href="https://cdn.jsdelivr.net/gh/devicons/devicon/icons/postgresql/postgresql-original.svg" x="28" y="6" width="44" height="44" preserveAspectRatio="xMidYMid meet"/>
<text x="50" y="84" text-anchor="middle" font-family="Arial, Helvetica, sans-serif" font-size="15.5" font-weight="600" fill="#3F342D">PostgreSQL</text>
</g>
<g transform="translate(560,202)">
<rect x="22" y="0" width="56" height="56" rx="14" fill="#F7F4F1" stroke="#ECE6E0" stroke-width="1"/>
<image href="https://cdn.jsdelivr.net/gh/devicons/devicon/icons/sqlite/sqlite-original.svg" x="28" y="6" width="44" height="44" preserveAspectRatio="xMidYMid meet"/>
<text x="50" y="84" text-anchor="middle" font-family="Arial, Helvetica, sans-serif" font-size="15.5" font-weight="600" fill="#3F342D">SQLite</text>
</g>
<g transform="translate(694,202)">
<rect x="22" y="0" width="56" height="56" rx="14" fill="#F7F4F1" stroke="#ECE6E0" stroke-width="1"/>
<image href="https://cdn.jsdelivr.net/gh/devicons/devicon/icons/git/git-original.svg" x="28" y="6" width="44" height="44" preserveAspectRatio="xMidYMid meet"/>
<text x="50" y="84" text-anchor="middle" font-family="Arial, Helvetica, sans-serif" font-size="15.5" font-weight="600" fill="#3F342D">Git</text>
</g>
<g transform="translate(828,202)">
<rect x="22" y="0" width="56" height="56" rx="14" fill="#F7F4F1" stroke="#ECE6E0" stroke-width="1"/>
<image href="https://cdn.jsdelivr.net/gh/devicons/devicon/icons/github/github-original.svg" x="28" y="6" width="44" height="44" preserveAspectRatio="xMidYMid meet"/>
<text x="50" y="84" text-anchor="middle" font-family="Arial, Helvetica, sans-serif" font-size="15.5" font-weight="600" fill="#3F342D">GitHub</text>
</g>
<g transform="translate(962,202)">
<rect x="22" y="0" width="56" height="56" rx="14" fill="#F7F4F1" stroke="#ECE6E0" stroke-width="1"/>
<image href="https://cdn.jsdelivr.net/gh/devicons/devicon/icons/docker/docker-original.svg" x="28" y="6" width="44" height="44" preserveAspectRatio="xMidYMid meet"/>
<text x="50" y="84" text-anchor="middle" font-family="Arial, Helvetica, sans-serif" font-size="15.5" font-weight="600" fill="#3F342D">Docker</text>
</g>
</svg>