<svg xmlns="http://www.w3.org/2000/svg" width="590" height="430" viewBox="0 0 590 430">
<style>.sans{font-family:Arial,Helvetica,sans-serif}</style>
<rect width="590" height="430" rx="22" fill="#ffffff" stroke="#e5e7eb"/>
<rect x="24" y="24" width="38" height="34" rx="10" fill="#dcfce7"/>
<text x="43" y="47" text-anchor="middle" class="sans" font-size="18" font-weight="700" fill="#15803d">◇</text>
<text x="76" y="48" class="sans" font-size="25" font-weight="700" fill="#111827">toolbox</text>
<rect x="24" y="78" width="100" height="66" rx="12" fill="#fef2f2" stroke="#e5e7eb"/>
<text x="74.0" y="106" text-anchor="middle" class="sans" font-size="15" font-weight="700" fill="#111827">Java</text>
<text x="74.0" y="128" text-anchor="middle" class="sans" font-size="12" fill="#6b7280">●</text>
<rect x="136" y="78" width="100" height="66" rx="12" fill="#ecfdf5" stroke="#e5e7eb"/>
<text x="186.0" y="106" text-anchor="middle" class="sans" font-size="15" font-weight="700" fill="#111827">Spring Boot</text>
<text x="186.0" y="128" text-anchor="middle" class="sans" font-size="12" fill="#6b7280">●</text>
<rect x="248" y="78" width="100" height="66" rx="12" fill="#eff6ff" stroke="#e5e7eb"/>
<text x="298.0" y="106" text-anchor="middle" class="sans" font-size="15" font-weight="700" fill="#111827">Quarkus</text>
<text x="298.0" y="128" text-anchor="middle" class="sans" font-size="12" fill="#6b7280">●</text>
<rect x="360" y="78" width="100" height="66" rx="12" fill="#fffbeb" stroke="#e5e7eb"/>
<text x="410.0" y="106" text-anchor="middle" class="sans" font-size="15" font-weight="700" fill="#111827">Python</text>
<text x="410.0" y="128" text-anchor="middle" class="sans" font-size="12" fill="#6b7280">●</text>
<rect x="472" y="78" width="100" height="66" rx="12" fill="#ecfdf5" stroke="#e5e7eb"/>
<text x="522.0" y="106" text-anchor="middle" class="sans" font-size="15" font-weight="700" fill="#111827">Django</text>
<text x="522.0" y="128" text-anchor="middle" class="sans" font-size="12" fill="#6b7280">●</text>
<rect x="24" y="158" width="100" height="66" rx="12" fill="#f3f4f6" stroke="#e5e7eb"/>
<text x="74.0" y="186" text-anchor="middle" class="sans" font-size="15" font-weight="700" fill="#111827">DRF</text>
<text x="74.0" y="208" text-anchor="middle" class="sans" font-size="12" fill="#6b7280">●</text>
<rect x="136" y="158" width="100" height="66" rx="12" fill="#f5f3ff" stroke="#e5e7eb"/>
<text x="186.0" y="186" text-anchor="middle" class="sans" font-size="15" font-weight="700" fill="#111827">ASP.NET Core</text>
<text x="186.0" y="208" text-anchor="middle" class="sans" font-size="12" fill="#6b7280">●</text>
<rect x="248" y="158" width="100" height="66" rx="12" fill="#f5f3ff" stroke="#e5e7eb"/>
<text x="298.0" y="186" text-anchor="middle" class="sans" font-size="15" font-weight="700" fill="#111827">Entity Framework</text>
<text x="298.0" y="208" text-anchor="middle" class="sans" font-size="12" fill="#6b7280">●</text>
<rect x="360" y="158" width="100" height="66" rx="12" fill="#ecfeff" stroke="#e5e7eb"/>
<text x="410.0" y="186" text-anchor="middle" class="sans" font-size="15" font-weight="700" fill="#111827">React</text>
<text x="410.0" y="208" text-anchor="middle" class="sans" font-size="12" fill="#6b7280">●</text>
<rect x="472" y="158" width="100" height="66" rx="12" fill="#fff7ed" stroke="#e5e7eb"/>
<text x="522.0" y="186" text-anchor="middle" class="sans" font-size="15" font-weight="700" fill="#111827">HTML/CSS</text>
<text x="522.0" y="208" text-anchor="middle" class="sans" font-size="12" fill="#6b7280">●</text>
<rect x="24" y="238" width="100" height="66" rx="12" fill="#f5f3ff" stroke="#e5e7eb"/>
<text x="74.0" y="266" text-anchor="middle" class="sans" font-size="15" font-weight="700" fill="#111827">Bootstrap</text>
<text x="74.0" y="288" text-anchor="middle" class="sans" font-size="12" fill="#6b7280">●</text>
<rect x="136" y="238" width="100" height="66" rx="12" fill="#ecfeff" stroke="#e5e7eb"/>
<text x="186.0" y="266" text-anchor="middle" class="sans" font-size="15" font-weight="700" fill="#111827">Tailwind</text>
<text x="186.0" y="288" text-anchor="middle" class="sans" font-size="12" fill="#6b7280">●</text>
<rect x="248" y="238" width="100" height="66" rx="12" fill="#eff6ff" stroke="#e5e7eb"/>
<text x="298.0" y="266" text-anchor="middle" class="sans" font-size="15" font-weight="700" fill="#111827">Pandas</text>
<text x="298.0" y="288" text-anchor="middle" class="sans" font-size="12" fill="#6b7280">●</text>
<rect x="360" y="238" width="100" height="66" rx="12" fill="#f8fafc" stroke="#e5e7eb"/>
<text x="410.0" y="266" text-anchor="middle" class="sans" font-size="15" font-weight="700" fill="#111827">SQLite</text>
<text x="410.0" y="288" text-anchor="middle" class="sans" font-size="12" fill="#6b7280">●</text>
<rect x="472" y="238" width="100" height="66" rx="12" fill="#eff6ff" stroke="#e5e7eb"/>
<text x="522.0" y="266" text-anchor="middle" class="sans" font-size="15" font-weight="700" fill="#111827">PostgreSQL</text>
<text x="522.0" y="288" text-anchor="middle" class="sans" font-size="12" fill="#6b7280">●</text>
<rect x="24" y="318" width="100" height="66" rx="12" fill="#fff7ed" stroke="#e5e7eb"/>
<text x="74.0" y="346" text-anchor="middle" class="sans" font-size="15" font-weight="700" fill="#111827">Git</text>
<text x="74.0" y="368" text-anchor="middle" class="sans" font-size="12" fill="#6b7280">●</text>
<rect x="136" y="318" width="100" height="66" rx="12" fill="#f8fafc" stroke="#e5e7eb"/>
<text x="186.0" y="346" text-anchor="middle" class="sans" font-size="15" font-weight="700" fill="#111827">GitHub</text>
<text x="186.0" y="368" text-anchor="middle" class="sans" font-size="12" fill="#6b7280">●</text>
<rect x="248" y="318" width="100" height="66" rx="12" fill="#eff6ff" stroke="#e5e7eb"/>
<text x="298.0" y="346" text-anchor="middle" class="sans" font-size="15" font-weight="700" fill="#111827">GitHub Actions</text>
<text x="298.0" y="368" text-anchor="middle" class="sans" font-size="12" fill="#6b7280">●</text>
<rect x="360" y="318" width="100" height="66" rx="12" fill="#eff6ff" stroke="#e5e7eb"/>
<text x="410.0" y="346" text-anchor="middle" class="sans" font-size="15" font-weight="700" fill="#111827">Docker</text>
<text x="410.0" y="368" text-anchor="middle" class="sans" font-size="12" fill="#6b7280">●</text>
</svg>